<svg xmlns="http://www.w3.org/2000/svg" viewBox="0 0 680 680">
  <defs>
    <clipPath id="bx">
      <path d="M0,0H680V680H0Z"/>
    </clipPath>
  </defs>
  <rect x="56" y="56" width="568" height="568" rx="113" fill="#0F1B3A"/>
  <g clip-path="url(#bx)">
    <circle cx="200" cy="140" r="280" fill="#1B3A7C" opacity="0.6"/>
    <circle cx="520" cy="540" r="300" fill="#234D99" opacity="0.5"/>
    <circle cx="340" cy="340" r="220" fill="#2E62C4" opacity="0.3"/>
    <rect x="190" y="260" width="36" height="90" rx="9" fill="#00E5FF"/>
    <rect x="240" y="220" width="36" height="130" rx="9" fill="#2979FF"/>
    <rect x="290" y="280" width="36" height="70" rx="9" fill="#7C4DFF"/>
    <rect x="340" y="200" width="36" height="150" rx="9" fill="#00E5FF"/>
    <rect x="390" y="240" width="36" height="110" rx="9" fill="#448AFF"/>
    <line x1="175" y1="350" x2="440" y2="350" stroke="#ffffff" stroke-width="2" opacity="0.25"/>
    <rect x="190" y="390" width="100" height="50" rx="12" fill="#00E5FF" opacity="0.15"/>
    <rect x="310" y="390" width="100" height="50" rx="12" fill="#7C4DFF" opacity="0.15"/>
    <rect x="430" y="390" width="100" height="50" rx="12" fill="#2979FF" opacity="0.15"/>
  </g>
  <rect x="56" y="56" width="568" height="568" rx="113" fill="none" stroke="#2E62C4" stroke-width="3"/>
</svg>
